# xmcd CD Database Entry
#
# Track frame offsets:
# 14080
# 49182
# 76450
# 118435
# 156620
# 192272
# 221065
#
# Disc length: 3319 seconds
#
# Revision: 2
# Processed by: cddbd v1.4b42PL1 Copyright (c) Steve Scherf et al.
# Submitted via: tcd 2.0b
#
DISCID=790c3c07
DTITLE=Sebastian Whittaker and the Creators - The Valley of the King
DTITLE=s
DYEAR=1900
DGENRE=
TTITLE0=Hear My Prayer
TTITLE1=Can You Dig It
TTITLE2=Homecoming
TTITLE3=Illusion
TTITLE4=Why Me
TTITLE5=Too Sensitive
TTITLE6=The Way You Look Tonight
EXTD=
EXTT0=
EXTT1=
EXTT2=
EXTT3=
EXTT4=
EXTT5=
EXTT6=
PLAYORDER=
